<svg id="Layer_1" enable-background="new 0 0 512 512" height="512" viewBox="0 0 512 512" width="512" xmlns="http://www.w3.org/2000/svg"><g><path d="m251.988 512h-40c-19.851 0-36-16.149-36-36v-248c0-19.851 16.149-36 36-36h40c19.851 0 36 16.149 36 36v248c0 19.851-16.15 36-36 36z"/><path d="m99.988 512h-40c-19.851 0-36-16.149-36-36v-168c0-19.851 16.149-36 36-36h40c19.851 0 36 16.149 36 36v168c0 19.851-16.15 36-36 36z"/><path d="m403.988 512h-40c-19.851 0-36-16.149-36-36v-332h-21.98c-10.276 0-19.328-5.8-23.622-15.136s-2.807-19.982 3.881-27.785c.076-.089.154-.178.232-.265l85.573-95.492c3.035-3.387 7.368-5.322 11.916-5.322s8.88 1.935 11.916 5.322l85.573 95.492c.079.087.156.176.232.265 6.688 7.802 8.175 18.449 3.881 27.785s-13.346 15.136-23.622 15.136h-21.98v332c0 19.851-16.15 36-36 36z"/></g></svg>