<svg  viewBox="0 0 28 23"><g><g><path d="M24.648 5.703l.062.743c-.041 3.924-1.435 7.537-4.181 10.84-2.747 3.305-6.742 5.06-11.986 5.265-1.61 0-3.15-.226-4.615-.68A16.837 16.837 0 0 1-.13 20.011c.454.042.908.061 1.363.061 1.321 0 2.58-.205 3.779-.619a10.271 10.271 0 0 0 3.22-1.795c-1.238-.041-2.333-.424-3.282-1.147a5.603 5.603 0 0 1-1.982-2.818c.33.083.681.123 1.053.123a5.68 5.68 0 0 0 1.486-.185c-1.322-.288-2.406-.94-3.252-1.952-.847-1.01-1.27-2.219-1.27-3.624v-.061c.744.413 1.59.64 2.54.681A5.543 5.543 0 0 1 1.73 6.694c-.455-.825-.682-1.744-.682-2.757 0-1.012.248-1.951.744-2.818a15.822 15.822 0 0 0 5.11 4.15c2.003 1.033 4.202 1.633 6.597 1.797a4.495 4.495 0 0 1-.186-1.301c.041-1.61.599-2.953 1.673-4.027C16.058.664 17.379.108 18.949.066c1.735.042 3.138.641 4.212 1.796A11.148 11.148 0 0 0 26.754.5c-.455 1.363-1.28 2.416-2.478 3.16a12.453 12.453 0 0 0 3.222-.93 12.184 12.184 0 0 1-2.85 2.974z"/></g></g></svg>
